<svg width="36" height="37" viewBox="0 0 36 37" fill="none" xmlns="http://www.w3.org/2000/svg">
<path d="M35.5656 16.6847H18.525V21.7315H30.7563C30.1031 28.7378 24.4031 31.7659 18.8813 31.7659C11.875 31.7659 5.64065 26.3034 5.64065 18.4065C5.64065 10.8065 11.5781 5.04717 18.8813 5.04717C24.4625 5.04717 27.8469 8.66904 27.8469 8.66904L31.2906 5.04717C31.2906 5.04717 26.6594 0.000297179 18.6438 0.000297179C8.07502 -0.0590778 0 8.78779 0 18.3472C0 27.6097 7.60002 36.7534 18.8219 36.7534C28.7375 36.7534 35.8625 30.044 35.8625 20.0097C35.9219 17.9315 35.5656 16.6847 35.5656 16.6847Z" fill="#1C2033"/>
</svg>
