<svg width="36" height="46" viewBox="0 0 36 46" fill="none" xmlns="http://www.w3.org/2000/svg">
<path d="M18.0001 1C16.0678 1 14.2146 1.63214 12.8483 2.75736C11.482 3.88258 10.7144 5.4087 10.7144 7V23C10.7144 24.5913 11.482 26.1174 12.8483 27.2426C14.2146 28.3679 16.0678 29 18.0001 29C19.9324 29 21.7855 28.3679 23.1518 27.2426C24.5182 26.1174 25.2858 24.5913 25.2858 23V7C25.2858 5.4087 24.5182 3.88258 23.1518 2.75736C21.7855 1.63214 19.9324 1 18.0001 1Z" stroke="#FF8C00" stroke-width="2" stroke-linecap="round" stroke-linejoin="round"/>
<path d="M35 19V23C35 26.713 33.2089 30.274 30.0208 32.8995C26.8327 35.525 22.5087 37 18 37M18 37C13.4913 37 9.1673 35.525 5.97918 32.8995C2.79107 30.274 1 26.713 1 23V19M18 37V45M8.28571 45H27.7143" stroke="#FF8C00" stroke-width="2" stroke-linecap="round" stroke-linejoin="round"/>
</svg>
