<svg width="44" height="44" viewBox="0 0 44 44" fill="none" xmlns="http://www.w3.org/2000/svg">
<path d="M42.848 29.0552L38.4435 25.0734V15.262C38.5021 11.6186 37.0924 8.07925 34.4748 5.29735C31.8572 2.51546 28.2085 0.67895 24.2023 0.126926C21.8772 -0.14835 19.5136 0.0253246 17.2691 0.636361C15.0246 1.2474 12.9509 2.28174 11.1863 3.67039C9.42166 5.05903 8.00676 6.77003 7.03596 8.68924C6.06516 10.6084 5.5608 12.6917 5.55652 14.8V25.0734L1.15201 29.0552C0.598772 29.5609 0.2236 30.2019 0.0733986 30.8982C-0.076803 31.5945 0.00462966 32.3152 0.307516 32.9701C0.610402 33.6251 1.1213 34.1852 1.77635 34.5805C2.4314 34.9759 3.20153 35.1888 3.99047 35.1928H12.2122V35.9408C12.3265 38.1741 13.4209 40.2756 15.2555 41.7848C17.0902 43.294 19.5155 44.0878 22 43.9923C24.4845 44.0878 26.9098 43.294 28.7445 41.7848C30.5791 40.2756 31.6735 38.1741 31.7878 35.9408V35.1928H40.0095C40.7985 35.1888 41.5686 34.9759 42.2236 34.5805C42.8787 34.1852 43.3896 33.6251 43.6925 32.9701C43.9954 32.3152 44.0768 31.5945 43.9266 30.8982C43.7764 30.2019 43.4012 29.5609 42.848 29.0552ZM26.8939 35.9408C26.7582 36.9989 26.1736 37.9692 25.262 38.6494C24.3503 39.3297 23.1818 39.6675 22 39.5925C20.8182 39.6675 19.6497 39.3297 18.738 38.6494C17.8264 37.9692 17.2418 36.9989 17.1061 35.9408V35.1928H26.8939V35.9408ZM6.11931 30.7931L9.00671 28.1972C9.4647 27.7879 9.82806 27.3012 10.0758 26.765C10.3236 26.2289 10.4509 25.654 10.4504 25.0734V14.8C10.4517 13.316 10.8062 11.8494 11.4899 10.4987C12.1736 9.14791 13.1707 7.94427 14.4145 6.96851C15.6414 5.96907 17.0953 5.22127 18.6754 4.77686C20.2556 4.33244 21.9243 4.20204 23.566 4.39467C26.3959 4.80775 28.9645 6.12599 30.799 8.10668C32.6334 10.0874 33.6102 12.5972 33.5496 15.174V25.0734C33.5459 25.6525 33.6693 26.2265 33.9129 26.7625C34.1564 27.2986 34.5152 27.7861 34.9688 28.1972L37.8807 30.7931H6.11931Z" fill="#FF8C00"/>
</svg>
